%
M48
M72
T01C0.0400
T02C0.1260
%
T01
X35140Y5400
X35140Y6400
X35140Y7400
X35140Y8400
X35140Y9400
X35140Y10400
X35140Y20900
X35140Y21900
X35140Y22900
X35140Y23900
X35140Y24900
X35140Y25900
X22140Y28900
X21140Y28900
X20140Y28900
X19140Y28900
X18140Y28900
X17140Y28900
X17140Y16900
X16140Y16900
X18140Y16900
X19140Y16900
X20140Y16900
X21140Y16900
X21140Y13400
X20140Y13400
X19140Y13400
X18140Y13400
X17140Y13400
X22140Y13400
X21140Y1400
X20140Y1400
X19140Y1400
X18140Y1400
X17140Y1400
X16140Y1400
X2140Y5400
X2140Y6400
X2140Y7400
X2140Y8400
X2140Y9400
X2140Y10400
X2140Y20900
X2140Y21900
X2140Y22900
X2140Y23900
X2140Y24900
X2140Y25900
T02
X8840Y4400
X10640Y4400
X10640Y6900
X8840Y6900
X8840Y9400
X10640Y9400
X13840Y9400
X15640Y9400
X15640Y6900
X13840Y6900
X13840Y4400
X15640Y4400
X22840Y4400
X24640Y4400
X24640Y6900
X22840Y6900
X22840Y9400
X24640Y9400
X27840Y9400
X29640Y9400
X29640Y6900
X27840Y6900
X27840Y4400
X29640Y4400
X29640Y19900
X27840Y19900
X27840Y22400
X29640Y22400
X29640Y24900
X27840Y24900
X24640Y24900
X22840Y24900
X22840Y22400
X24640Y22400
X24640Y19900
X22840Y19900
X15640Y19900
X13840Y19900
X13840Y22400
X15640Y22400
X15640Y24900
X13840Y24900
X10640Y24900
X8840Y24900
X8840Y22400
X10640Y22400
X10640Y19900
X8840Y19900
M30
